<svg xmlns="http://www.w3.org/2000/svg" version="1.1" xmlns:xlink="http://www.w3.org/1999/xlink" xmlns:svgjs="http://svgjs.com/svgjs" width="1440" height="560" preserveAspectRatio="none" viewBox="0 0 1440 560">
    <g mask="url(&quot;#SvgjsMask1102&quot;)" fill="none">
        <rect width="1440" height="560" x="0" y="0" fill="rgba(61, 87, 114, 1)"></rect>
        <path d="M0,395.451C72.887,383.91,134.062,344.494,199.624,310.621C272.64,272.897,353.936,248.9,406.283,185.543C467.585,111.348,543.36,18.336,517.775,-74.445C491.613,-169.32,363.05,-186.353,286.63,-248.367C226.677,-297.018,191.102,-376.802,117.286,-399.439C43.201,-422.159,-35.206,-394.68,-108.508,-369.546C-179.107,-345.338,-239.158,-304.508,-297.027,-257.376C-365.97,-201.225,-470.108,-157.284,-477.876,-68.708C-485.726,20.796,-374.27,72.272,-332.934,152.046C-294.536,226.15,-312.228,331.741,-244.853,380.999C-177.487,430.25,-82.423,408.502,0,395.451" fill="#2f4358"></path>
        <path d="M1440 966.999C1515.153 971.3009999999999 1584.44 920.777 1637.617 867.498 1685.113 819.9110000000001 1688.955 747.561 1719.031 687.429 1750.59 624.331 1814.142 575.965 1818.645 505.55899999999997 1823.464 430.21000000000004 1795.481 351.81600000000003 1744.029 296.558 1693.219 241.99 1613.875 232.39100000000002 1542.931 209.449 1469.862 185.82 1394.235 132.52800000000002 1322.634 160.289 1250.826 188.13 1236.232 282.113 1192.3220000000001 345.385 1154.039 400.549 1103.753 445.197 1081.054 508.391 1054.4940000000001 582.333 1015.259 667.712 1051.501 737.422 1087.87 807.3779999999999 1188.527 805.565 1256.406 845.677 1320.862 883.7660000000001 1365.253 962.72 1440 966.999" fill="#4b6b8c"></path>
    </g>
    <defs>
        <mask id="SvgjsMask1102">
            <rect width="1440" height="560" fill="#ffffff"></rect>
        </mask>
    </defs>
</svg>